<svg preserveAspectRatio="none" overflow="visible" style="display: block;" width="82.0791" height="39" viewBox="0 0 82.0791 39" fill="none" xmlns="http://www.w3.org/2000/svg">
<g id="Group 49">
<g id="Union">
<mask id="path-1-inside-1_0_4" fill="white">
<path d="M61.1338 0C64.8126 0 68.2532 1.0193 71.1895 2.79004L82.0791 4.77344L80.4229 16.6299C80.561 17.5666 80.6338 18.5249 80.6338 19.5C80.6338 30.2696 71.9033 39 61.1338 39H19.5C8.73046 39 0 30.2695 0 19.5C0 8.73045 8.73045 3.50134e-07 19.5 0H61.1338Z"/>
</mask>
<path d="M61.1338 0C64.8126 0 68.2532 1.0193 71.1895 2.79004L82.0791 4.77344L80.4229 16.6299C80.561 17.5666 80.6338 18.5249 80.6338 19.5C80.6338 30.2696 71.9033 39 61.1338 39H19.5C8.73046 39 0 30.2695 0 19.5C0 8.73045 8.73045 3.50134e-07 19.5 0H61.1338Z" fill="white"/>
<path d="M71.1895 2.79004L70.673 3.64637L70.83 3.74101L71.0103 3.77385L71.1895 2.79004ZM82.0791 4.77344L83.0695 4.91179L83.2022 3.96155L82.2583 3.78962L82.0791 4.77344ZM80.4229 16.6299L79.4325 16.4915L79.4126 16.6338L79.4336 16.7758L80.4229 16.6299ZM19.5 39V40V40V39ZM19.5 0V-1V-1V0ZM61.1338 0V1C64.6254 1 67.8882 1.96692 70.673 3.64637L71.1895 2.79004L71.7059 1.93371C68.6183 0.0716782 64.9998 -1 61.1338 -1V0ZM71.1895 2.79004L71.0103 3.77385L81.8999 5.75725L82.0791 4.77344L82.2583 3.78962L71.3686 1.80622L71.1895 2.79004ZM82.0791 4.77344L81.0887 4.63509L79.4325 16.4915L80.4229 16.6299L81.4132 16.7682L83.0695 4.91179L82.0791 4.77344ZM80.4229 16.6299L79.4336 16.7758C79.5648 17.6652 79.6338 18.5747 79.6338 19.5H80.6338H81.6338C81.6338 18.475 81.5573 17.468 81.4121 16.4839L80.4229 16.6299ZM80.6338 19.5H79.6338C79.6338 29.7173 71.3511 38 61.1338 38V39V40C72.4556 40 81.6338 30.8218 81.6338 19.5H80.6338ZM61.1338 39V38H19.5V39V40H61.1338V39ZM19.5 39V38C9.28274 38 1 29.7173 1 19.5H0H-1C-1 30.8218 8.17817 40 19.5 40V39ZM0 19.5H1C1 9.28273 9.28273 1 19.5 1V0V-1C8.17816 -1 -1 8.17816 -1 19.5H0ZM19.5 0V1H61.1338V0V-1H19.5V0Z" fill="#4A2230" mask="url(#path-1-inside-1_0_4)"/>
</g>
<g id="HI!">
<path d="M21.6079 30.0001L21.6399 29.3601L24.0399 28.1441L25.1279 12.2721L22.9199 11.0241L22.9519 10.4161H30.7599L30.6959 11.0561L28.3599 12.2721L27.8799 19.1201H35.5279L36.0079 12.2721L33.7999 11.0241L33.8639 10.4161H41.6399L41.5759 11.0561L39.2399 12.2721L38.1519 28.1441L40.3279 29.3921L40.2959 30.0001H32.5199L32.5519 29.3601L34.9199 28.1441L35.4319 20.4961H27.7839L27.2719 28.1441L29.4479 29.3921L29.4159 30.0001H21.6079Z" fill="black"/>
<path d="M42.6392 30.0001L42.7032 29.3601L45.0712 28.1121L46.1592 12.2721L43.9512 11.0241L43.9832 10.4161H51.7912L51.7272 11.0561L49.3912 12.2721L48.3032 28.1441L50.4792 29.3921L50.4472 30.0001H42.6392Z" fill="black"/>
<path d="M55.4827 24.9121C55.6747 22.2454 55.7493 19.7174 55.7067 17.3281C55.664 14.9388 55.6 12.6241 55.5147 10.3841L59.2267 9.39209L57.2747 24.2401L55.4827 24.9121ZM55.9947 30.4161C55.7813 30.4161 55.504 30.3201 55.1627 30.1281C54.8427 29.9361 54.5547 29.7014 54.2987 29.4241C54.0427 29.1468 53.9253 28.8801 53.9467 28.6241C53.968 28.3468 54.1067 28.0481 54.3627 27.7281C54.6187 27.3868 54.9067 27.0988 55.2267 26.8641C55.5467 26.6081 55.824 26.4801 56.0587 26.4801C56.272 26.4801 56.5493 26.5761 56.8907 26.7681C57.232 26.9601 57.5307 27.1948 57.7867 27.4721C58.064 27.7494 58.192 28.0268 58.1707 28.3041C58.1493 28.4961 58.0533 28.7201 57.8827 28.9761C57.712 29.2108 57.5093 29.4454 57.2747 29.6801C57.0613 29.8934 56.8373 30.0641 56.6027 30.1921C56.368 30.3414 56.1653 30.4161 55.9947 30.4161Z" fill="black"/>
</g>
</g>
</svg>
