<svg preserveAspectRatio="none" overflow="visible" style="display: block;" width="37" height="31" viewBox="0 0 37 31" fill="none" xmlns="http://www.w3.org/2000/svg">
<g id="Container">
<path id="Icon" d="M3.7 31C2.6825 31 1.81146 30.6627 1.08687 29.9882C0.362292 29.3137 0 28.5028 0 27.5556V15.5H3.7V27.5556H20.35V31H3.7ZM11.1 24.1111C10.0825 24.1111 9.21146 23.7738 8.48688 23.0993C7.76229 22.4248 7.4 21.6139 7.4 20.6667V8.61111H11.1V20.6667H27.75V24.1111H11.1ZM18.5 17.2222C17.4825 17.2222 16.6115 16.885 15.8869 16.2104C15.1623 15.5359 14.8 14.725 14.8 13.7778V3.44444C14.8 2.49722 15.1623 1.68634 15.8869 1.01181C16.6115 0.337268 17.4825 0 18.5 0H33.3C34.3175 0 35.1885 0.337268 35.9131 1.01181C36.6377 1.68634 37 2.49722 37 3.44444V13.7778C37 14.725 36.6377 15.5359 35.9131 16.2104C35.1885 16.885 34.3175 17.2222 33.3 17.2222H18.5ZM18.5 13.7778H33.3V6.88889H18.5V13.7778Z" fill="white"/>
</g>
</svg>
