<svg preserveAspectRatio="none" overflow="visible" style="display: block;" width="14.9917" height="14.9917" viewBox="0 0 14.9917 14.9917" fill="none" xmlns="http://www.w3.org/2000/svg">
<g id="Glyph" clip-path="url(#clip0_0_48)">
<path id="Vector" d="M6.74627 11.2438H8.24544V6.74627H6.74627V11.2438ZM7.49585 5.2471C7.70823 5.2471 7.88626 5.17526 8.02993 5.03159C8.1736 4.88792 8.24544 4.70989 8.24544 4.49751C8.24544 4.28513 8.1736 4.10711 8.02993 3.96344C7.88626 3.81977 7.70823 3.74793 7.49585 3.74793C7.28347 3.74793 7.10544 3.81977 6.96177 3.96344C6.8181 4.10711 6.74627 4.28513 6.74627 4.49751C6.74627 4.70989 6.8181 4.88792 6.96177 5.03159C7.10544 5.17526 7.28347 5.2471 7.49585 5.2471ZM7.49585 14.9917C6.45892 14.9917 5.48446 14.7949 4.57247 14.4014C3.66047 14.0078 2.86716 13.4737 2.19254 12.7991C1.51791 12.1245 0.98383 11.3312 0.590298 10.4192C0.196766 9.50724 0 8.53278 0 7.49585C0 6.45892 0.196766 5.48446 0.590298 4.57247C0.98383 3.66047 1.51791 2.86716 2.19254 2.19254C2.86716 1.51791 3.66047 0.98383 4.57247 0.590298C5.48446 0.196766 6.45892 0 7.49585 0C8.53278 0 9.50724 0.196766 10.4192 0.590298C11.3312 0.98383 12.1245 1.51791 12.7991 2.19254C13.4737 2.86716 14.0078 3.66047 14.4014 4.57247C14.7949 5.48446 14.9917 6.45892 14.9917 7.49585C14.9917 8.53278 14.7949 9.50724 14.4014 10.4192C14.0078 11.3312 13.4737 12.1245 12.7991 12.7991C12.1245 13.4737 11.3312 14.0078 10.4192 14.4014C9.50724 14.7949 8.53278 14.9917 7.49585 14.9917Z" fill="#006B5F"/>
</g>
<defs>
<clipPath id="clip0_0_48">
<rect width="14.9917" height="14.9917" fill="white"/>
</clipPath>
</defs>
</svg>
